<mxfile host="app.diagrams.net" modified="2022-07-05T04:37:42.244Z" agent="5.0 (Windows NT 10.0; Win64; x64) AppleWebKit/537.36 (KHTML, like Gecko) Chrome/103.0.5060.66 Safari/537.36 Edg/103.0.1264.44" etag="KP5jxtp3bR_bx19gXyX1" version="20.0.2" type="github">
  <diagram id="K3QDEHfWL2UMt07OU5fV" name="Page-1">
    <mxGraphModel dx="1422" dy="762" grid="1" gridSize="10" guides="1" tooltips="1" connect="1" arrows="1" fold="1" page="1" pageScale="1" pageWidth="850" pageHeight="1100" math="0" shadow="0">
      <root>
        <mxCell id="0" />
        <mxCell id="1" parent="0" />
        <mxCell id="6ebMJmyZtmMnn4BQMert-1" value="&lt;font style=&quot;font-size: 18px;&quot;&gt;普通模式&lt;/font&gt;" style="rounded=1;whiteSpace=wrap;html=1;" vertex="1" parent="1">
          <mxGeometry x="360" y="241" width="120" height="60" as="geometry" />
        </mxCell>
        <mxCell id="6ebMJmyZtmMnn4BQMert-2" value="&lt;font style=&quot;font-size: 18px;&quot;&gt;插入模式&lt;/font&gt;" style="rounded=1;whiteSpace=wrap;html=1;" vertex="1" parent="1">
          <mxGeometry x="570" y="400" width="120" height="60" as="geometry" />
        </mxCell>
        <mxCell id="6ebMJmyZtmMnn4BQMert-3" value="&lt;font style=&quot;font-size: 18px;&quot;&gt;命令模式&lt;/font&gt;" style="rounded=1;whiteSpace=wrap;html=1;" vertex="1" parent="1">
          <mxGeometry x="160" y="400" width="120" height="60" as="geometry" />
        </mxCell>
        <mxCell id="6ebMJmyZtmMnn4BQMert-4" value="&lt;font style=&quot;font-size: 18px;&quot;&gt;视图模式&lt;/font&gt;" style="rounded=1;whiteSpace=wrap;html=1;" vertex="1" parent="1">
          <mxGeometry x="360" y="400" width="120" height="60" as="geometry" />
        </mxCell>
        <mxCell id="6ebMJmyZtmMnn4BQMert-5" value="" style="endArrow=classic;html=1;rounded=0;fontSize=18;" edge="1" parent="1">
          <mxGeometry width="50" height="50" relative="1" as="geometry">
            <mxPoint x="410" y="390" as="sourcePoint" />
            <mxPoint x="410" y="310" as="targetPoint" />
          </mxGeometry>
        </mxCell>
        <mxCell id="6ebMJmyZtmMnn4BQMert-6" value="ECS" style="text;html=1;align=center;verticalAlign=middle;resizable=0;points=[];autosize=1;strokeColor=none;fillColor=none;fontSize=18;rotation=-90;" vertex="1" parent="1">
          <mxGeometry x="360" y="330" width="60" height="40" as="geometry" />
        </mxCell>
        <mxCell id="6ebMJmyZtmMnn4BQMert-7" value="" style="endArrow=classic;html=1;rounded=0;fontSize=18;entryX=0.25;entryY=1;entryDx=0;entryDy=0;" edge="1" parent="1" target="6ebMJmyZtmMnn4BQMert-1">
          <mxGeometry width="50" height="50" relative="1" as="geometry">
            <mxPoint x="240" y="400" as="sourcePoint" />
            <mxPoint x="240" y="320" as="targetPoint" />
          </mxGeometry>
        </mxCell>
        <mxCell id="6ebMJmyZtmMnn4BQMert-8" value="ECS" style="text;html=1;align=center;verticalAlign=middle;resizable=0;points=[];autosize=1;strokeColor=none;fillColor=none;fontSize=18;rotation=-30;" vertex="1" parent="1">
          <mxGeometry x="297" y="347" width="60" height="40" as="geometry" />
        </mxCell>
        <mxCell id="6ebMJmyZtmMnn4BQMert-9" value="" style="endArrow=classic;html=1;rounded=0;fontSize=18;entryX=0.75;entryY=1;entryDx=0;entryDy=0;" edge="1" parent="1" target="6ebMJmyZtmMnn4BQMert-1">
          <mxGeometry width="50" height="50" relative="1" as="geometry">
            <mxPoint x="610" y="400" as="sourcePoint" />
            <mxPoint x="610" y="320" as="targetPoint" />
          </mxGeometry>
        </mxCell>
        <mxCell id="6ebMJmyZtmMnn4BQMert-10" value="ECS" style="text;html=1;align=center;verticalAlign=middle;resizable=0;points=[];autosize=1;strokeColor=none;fillColor=none;fontSize=18;rotation=-149;" vertex="1" parent="1">
          <mxGeometry x="480" y="340" width="60" height="40" as="geometry" />
        </mxCell>
        <mxCell id="6ebMJmyZtmMnn4BQMert-11" value="" style="endArrow=classic;html=1;rounded=0;fontSize=18;entryX=0.558;entryY=-0.033;entryDx=0;entryDy=0;exitX=0.108;exitY=1;exitDx=0;exitDy=0;exitPerimeter=0;entryPerimeter=0;" edge="1" parent="1" source="6ebMJmyZtmMnn4BQMert-1" target="6ebMJmyZtmMnn4BQMert-3">
          <mxGeometry width="50" height="50" relative="1" as="geometry">
            <mxPoint x="340" y="300" as="sourcePoint" />
            <mxPoint x="450" y="360" as="targetPoint" />
          </mxGeometry>
        </mxCell>
        <mxCell id="6ebMJmyZtmMnn4BQMert-12" value="输入：" style="text;html=1;align=center;verticalAlign=middle;resizable=0;points=[];autosize=1;strokeColor=none;fillColor=none;fontSize=18;rotation=-30;" vertex="1" parent="1">
          <mxGeometry x="260" y="301" width="80" height="40" as="geometry" />
        </mxCell>
        <mxCell id="6ebMJmyZtmMnn4BQMert-13" value="" style="endArrow=classic;html=1;rounded=0;fontSize=18;" edge="1" parent="1">
          <mxGeometry width="50" height="50" relative="1" as="geometry">
            <mxPoint x="420" y="310" as="sourcePoint" />
            <mxPoint x="420" y="390" as="targetPoint" />
          </mxGeometry>
        </mxCell>
        <mxCell id="6ebMJmyZtmMnn4BQMert-14" value="输入v" style="text;html=1;align=center;verticalAlign=middle;resizable=0;points=[];autosize=1;strokeColor=none;fillColor=none;fontSize=18;rotation=-90;" vertex="1" parent="1">
          <mxGeometry x="406" y="330" width="70" height="40" as="geometry" />
        </mxCell>
        <mxCell id="6ebMJmyZtmMnn4BQMert-15" value="输入i" style="text;html=1;align=center;verticalAlign=middle;resizable=0;points=[];autosize=1;strokeColor=none;fillColor=none;fontSize=18;rotation=30;" vertex="1" parent="1">
          <mxGeometry x="526" y="304" width="60" height="40" as="geometry" />
        </mxCell>
        <mxCell id="6ebMJmyZtmMnn4BQMert-16" value="" style="endArrow=classic;html=1;rounded=0;fontSize=18;exitX=0.933;exitY=1;exitDx=0;exitDy=0;exitPerimeter=0;entryX=0.5;entryY=0;entryDx=0;entryDy=0;" edge="1" parent="1" source="6ebMJmyZtmMnn4BQMert-1" target="6ebMJmyZtmMnn4BQMert-2">
          <mxGeometry width="50" height="50" relative="1" as="geometry">
            <mxPoint x="400" y="410" as="sourcePoint" />
            <mxPoint x="450" y="360" as="targetPoint" />
          </mxGeometry>
        </mxCell>
      </root>
    </mxGraphModel>
  </diagram>
</mxfile>
